<?xml version="1.0" encoding="UTF-8" standalone="no"?>
<!-- Created with Inkscape (http://www.inkscape.org/) -->

<svg
   xmlns:dc="http://purl.org/dc/elements/1.1/"
   xmlns:cc="http://creativecommons.org/ns#"
   xmlns:rdf="http://www.w3.org/1999/02/22-rdf-syntax-ns#"
   xmlns:svg="http://www.w3.org/2000/svg"
   xmlns="http://www.w3.org/2000/svg"
   xmlns:sodipodi="http://sodipodi.sourceforge.net/DTD/sodipodi-0.dtd"
   xmlns:inkscape="http://www.inkscape.org/namespaces/inkscape"
   id="svg2"
   version="1.1"
   inkscape:version="0.48.4 r9939"
   width="221.2375"
   height="107.575"
   xml:space="preserve"
   sodipodi:docname="EDUCACION NEGAT COLOR.eps"><metadata
     id="metadata8"><rdf:RDF><cc:Work
         rdf:about=""><dc:format>image/svg+xml</dc:format><dc:type
           rdf:resource="http://purl.org/dc/dcmitype/StillImage" /><dc:title></dc:title></cc:Work></rdf:RDF></metadata><defs
     id="defs6" /><sodipodi:namedview
     pagecolor="#ffffff"
     bordercolor="#666666"
     borderopacity="1"
     objecttolerance="10"
     gridtolerance="10"
     guidetolerance="10"
     inkscape:pageopacity="0"
     inkscape:pageshadow="2"
     inkscape:window-width="1920"
     inkscape:window-height="1014"
     id="namedview4"
     showgrid="false"
     inkscape:zoom="1.7492513"
     inkscape:cx="111.7621"
     inkscape:cy="53.787498"
     inkscape:window-x="0"
     inkscape:window-y="27"
     inkscape:window-maximized="1"
     inkscape:current-layer="g12" /><g
     id="g10"
     inkscape:groupmode="layer"
     inkscape:label="ink_ext_XXXXXX"
     transform="matrix(1.25,0,0,-1.25,0,107.575)"><g
       id="g12"
       transform="scale(0.1,0.1)"><path
         d="m 161.848,665.637 340.507,0 0,-340.508 -340.507,0 0,340.508"
         style="fill:#ffffff;fill-opacity:1;fill-rule:nonzero;stroke:none"
         id="path16" /><path
         d="m 177.371,650.145 309.555,0 0,-309.571 -309.555,0 0,309.571"
         style="fill:#fff200;fill-opacity:1;fill-rule:nonzero;stroke:none"
         id="path18" /><path
         d="m 486.902,590.715 -74.351,-14.902 c -26.723,-4.165 -54.555,0 -77.656,10.078 -15.454,8.218 -31.45,15.449 -49.082,17.871 -11.274,1.738 -23.442,1.636 -34.727,0.093 l -49.609,-8.867 c -7.891,-1.543 -16.118,-2.945 -24.106,-4.273 l 0,56.305 c 12.149,3.07 25.844,4.921 38.227,0.878 7.34,-1.636 13.687,-5.918 20.488,-9.199 13.687,-7.246 26.836,-15.879 42.168,-19.273 20.391,-5.703 44.488,-4.399 64.859,0.308 l 46.45,8.442 48.511,8.765 48.828,10.063 0,-56.289"
         style="fill:#ed1c24;fill-opacity:1;fill-rule:nonzero;stroke:none"
         id="path20" /><path
         d="m 242.219,412.004 c 31.109,7.559 66.597,3.492 93.886,-9.984 23.438,-14 53.004,-19.918 81.598,-14.786 l 69.199,12.5 0,-56.089 c -9.746,-2.09 -19.234,-4.067 -29.547,-2.524 -5.468,0.883 -10.722,2.309 -15.667,4.492 l -35.918,18.828 c -20.602,9.219 -45.899,12.622 -69.665,8.125 l -148.656,-27.285 -10.078,-1.636 0,56.089 12.387,2.524 32.515,6.012 c 6.582,1.21 13.481,2.421 19.946,3.734 l 0,0"
         style="fill:#ed1c24;fill-opacity:1;fill-rule:evenodd;stroke:none"
         id="path22" /><path
         d="m 177.371,501.965 0,43.164 127.949,23.316 c 31.875,3.95 62.993,-2.183 89.493,-16.09 23.988,-12.597 55.429,-15.785 83.261,-9.101 l 8.828,1.851 0,-43.164 -28.218,16.118 c -19.946,9.316 -43.594,13.257 -67.153,9.976 l -78.648,-14.351 c -9.438,-1.758 -28.266,-5.161 -28.266,-5.161 L 212.98,495.281 c -14.75,-2.301 -25.429,0.766 -35.609,6.684 l 0,0"
         style="fill:#ed1c24;fill-opacity:1;fill-rule:nonzero;stroke:none"
         id="path24" /><path
         d="m 486.902,487.156 0,-42.5 -126.812,-23.34 c -31.875,-3.945 -62.988,2.192 -89.492,16.094 -24.004,12.602 -55.434,15.781 -83.262,9.106 l -9.965,-1.875 0,42.515 29.359,-15.445 c 19.942,-9.316 43.59,-13.266 67.149,-9.981 l 78.648,14.356 c 9.414,1.758 28.266,5.152 28.266,5.152 l 71.641,13.266 c 13.882,2.207 24.683,-1.777 34.468,-7.348 l 0,0"
         style="fill:#ed1c24;fill-opacity:1;fill-rule:nonzero;stroke:none"
         id="path26" /><path
         d="m 549.813,369.172 0,84.473 13.773,0 c 28.57,0 44.234,-15.04 44.234,-42.344 0,-27.949 -15.039,-42.129 -44.453,-42.129 l -13.554,0 0,0 z m -31.954,112.637 0,-141.211 47.192,0 c 47.847,0 75.996,26.25 75.996,70.703 0,44.258 -28.789,70.508 -77.68,70.508 l -45.508,0 0,0"
         style="fill:#ffffff;fill-opacity:1;fill-rule:evenodd;stroke:none"
         id="path28" /><path
         d="m 652.59,481.809 0,-141.211 93.555,0 0,28.574 -62.036,0 0,32.183 61.387,0 0,28.579 -61.387,0 0,23.496 62.036,0 0,28.379 -93.555,0 0,0"
         style="fill:#ffffff;fill-opacity:1;fill-rule:nonzero;stroke:none"
         id="path30" /><path
         d="m 899.426,410.867 -26.446,0 3.375,9.746 c 2.754,8.266 3.813,11.02 4.668,14.399 0.415,1.265 1.25,3.804 2.329,7.617 l 1.484,5.293 c 0.191,0.641 0.625,2.129 1.269,4.668 1.485,-5.942 2.54,-10.18 4.864,-17.152 l 2.539,-7.833 c 1.48,-4.238 2.105,-6.558 2.32,-6.992 l 3.598,-9.746 0,0 z m -31.953,70.942 -51.426,-141.211 33.433,0 15.239,42.965 43.164,0 15.039,-42.965 34.082,0 -52.5,141.211 -37.031,0 0,0"
         style="fill:#ffffff;fill-opacity:1;fill-rule:evenodd;stroke:none"
         id="path32" /><path
         d="m 994.871,425.281 0,29.629 14.399,0 c 13.75,0 19.9,-4.449 19.9,-14.605 0,-10.16 -6.78,-15.024 -20.33,-15.024 l -13.969,0 0,0 z m -32.383,-84.683 32.383,0 0,58.007 4.024,0 c 20.335,0 22.445,-2.113 35.975,-37.05 1.49,-3.813 2.35,-6.133 2.97,-7.207 l 2.76,-6.567 c 1.91,-4.429 2.12,-4.859 3.39,-7.183 l 38.73,0 c -7.83,8.687 -14.39,20.523 -26.89,49.312 -5.49,12.07 -8.67,15.688 -18.83,19.903 16.51,5.097 25.82,17.167 25.82,33.886 0,25.395 -16.72,38.11 -50.37,38.11 l -49.962,0 0,-141.211"
         style="fill:#ffffff;fill-opacity:1;fill-rule:evenodd;stroke:none"
         id="path34" /><path
         d="m 1139.79,410.867 -26.46,0 3.4,9.746 c 2.75,8.266 3.81,11.02 4.65,14.399 0.43,1.265 1.27,3.804 2.32,7.617 l 1.49,5.293 c 0.21,0.641 0.64,2.129 1.27,4.668 1.48,-5.942 2.53,-10.18 4.88,-17.152 l 2.54,-7.833 c 1.46,-4.238 2.11,-6.558 2.32,-6.992 l 3.59,-9.746 0,0 z m -31.95,70.942 -51.44,-141.211 33.43,0 15.26,42.965 43.18,0 15.02,-42.965 34.08,0 -52.5,141.211 -37.03,0 0,0"
         style="fill:#ffffff;fill-opacity:1;fill-rule:evenodd;stroke:none"
         id="path36" /><path
         d="m 1304.4,412.781 -31.54,0 0,-44.453 c -6.13,-1.695 -8.67,-1.91 -13.53,-1.91 -24.14,0 -41.92,18.848 -41.92,44.449 0,27.539 18.83,45.957 46.78,45.957 13.96,0 25.6,-3.594 40.21,-12.281 l 0,32.168 c -16.71,6.148 -28.57,8.477 -42.96,8.477 -45.73,0 -77.47,-30.708 -77.47,-74.727 0,-43.398 31.12,-72.832 77.47,-72.832 14.39,0 29.62,2.539 42.96,7.422 l 0,67.73"
         style="fill:#ffffff;fill-opacity:1;fill-rule:nonzero;stroke:none"
         id="path38" /><path
         d="m 1430.13,411.086 c 0,-26.66 -15.67,-44.453 -39.36,-44.453 -23.92,0 -40.21,18.008 -40.21,44.453 0,26.465 15.86,44.473 39.57,44.473 23.92,0 40,-17.793 40,-44.473 l 0,0 z m 33.67,0.43 c 0,42.129 -31.33,72.832 -74.1,72.832 -41.7,0 -72.6,-31.118 -72.6,-73.262 0,-42.348 30.9,-73.027 73.67,-73.027 42.76,0 73.03,30.488 73.03,73.457 l 0,0"
         style="fill:#ffffff;fill-opacity:1;fill-rule:evenodd;stroke:none"
         id="path40" /><path
         d="m 1475.99,481.809 0,-141.211 32.16,0 0,57.578 c 0,3.394 0,5.933 0,7.422 l -0.21,7.398 -0.22,8.051 c 0,1.055 0,3.164 -0.41,6.773 l -0.21,5.293 c 1.05,-2.129 1.68,-3.593 2.32,-4.668 0.22,-0.215 1.49,-2.324 3.81,-6.558 l 5.73,-9.746 c 0.19,-0.411 2.32,-3.594 6.13,-9.512 l 5.51,-8.891 34.49,-53.14 29.84,0 0,141.211 -32.17,0 0,-52.289 c 0,-13.141 0.43,-23.297 1.06,-31.778 0,-1.054 0.21,-2.754 0.43,-5.074 -4.24,8.902 -9.94,18.418 -17.78,30.484 l -38.32,58.657 -32.16,0 0,0"
         style="fill:#ffffff;fill-opacity:1;fill-rule:nonzero;stroke:none"
         id="path42" /><path
         d="m 636.008,581.34 -31.528,0 0,-44.438 c -6.152,-1.699 -8.687,-1.914 -13.55,-1.914 -24.145,0 -41.914,18.828 -41.914,44.453 0,27.524 18.843,45.942 46.777,45.942 13.965,0 25.625,-3.613 40.215,-12.285 l 0,32.168 c -16.723,6.152 -28.574,8.472 -42.973,8.472 -45.722,0 -77.461,-30.703 -77.461,-74.722 0,-43.403 31.114,-72.817 77.461,-72.817 14.399,0 29.653,2.539 42.973,7.406 l 0,67.735"
         style="fill:#ffffff;fill-opacity:1;fill-rule:nonzero;stroke:none"
         id="path44" /><path
         d="m 761.594,579.656 c 0,-26.676 -15.688,-44.453 -39.375,-44.453 -23.926,0 -40.239,17.988 -40.239,44.453 0,26.449 15.879,44.438 39.59,44.438 23.926,0 40.024,-17.778 40.024,-44.438 l 0,0 z m 33.648,0.41 c 0,42.129 -31.324,72.817 -74.082,72.817 -41.719,0 -72.613,-31.113 -72.613,-73.227 0,-42.343 30.894,-73.023 73.672,-73.023 42.754,0 73.023,30.469 73.023,73.433 l 0,0"
         style="fill:#ffffff;fill-opacity:1;fill-rule:evenodd;stroke:none"
         id="path46" /><path
         d="m 837.98,537.961 0,32.809 17.774,0 c 16.719,0 23.711,-4.665 23.711,-16.52 0,-11.43 -6.777,-16.289 -22.445,-16.289 l -19.04,0 0,0 z m 0,59.684 0,25.824 13.75,0 c 15.04,0 20.333,-3.379 20.333,-12.485 0,-9.531 -5.508,-13.339 -19.258,-13.339 l -14.825,0 0,0 z m -32.187,52.699 0,-141.172 58.437,0 c 31.114,0 49.293,15.445 49.293,41.914 0,18.184 -10.371,31.324 -29.39,36.812 12.887,6.372 19.234,16.313 19.234,29.004 0.219,22.446 -15.015,33.442 -45.484,33.442 l -52.09,0 0,0"
         style="fill:#ffffff;fill-opacity:1;fill-rule:evenodd;stroke:none"
         id="path48" /><path
         d="m 951.73,650.344 -31.542,0 0,-141.172 31.542,0 0,141.172"
         style="fill:#ffffff;fill-opacity:1;fill-rule:nonzero;stroke:none"
         id="path50" /><path
         d="m 965.461,650.344 0,-141.172 93.549,0 0,28.57 -62.006,0 0,32.168 61.386,0 0,28.574 -61.386,0 0,23.496 62.006,0 0,28.364 -93.549,0 0,0"
         style="fill:#ffffff;fill-opacity:1;fill-rule:nonzero;stroke:none"
         id="path52" /><path
         d="m 1105.09,593.84 0,29.629 14.39,0 c 13.77,0 19.9,-4.453 19.9,-14.614 0,-10.156 -6.77,-15.015 -20.31,-15.015 l -13.98,0 0,0 z m -32.38,-84.668 32.38,0 0,57.984 4.02,0 c 20.33,0 22.44,-2.105 36,-37.027 1.48,-3.828 2.32,-6.152 2.95,-7.207 l 2.75,-6.567 c 1.91,-4.453 2.13,-4.863 3.4,-7.183 l 38.73,0 c -7.83,8.672 -14.4,20.523 -26.9,49.312 -5.48,12.075 -8.67,15.664 -18.82,19.907 16.5,5.078 25.82,17.129 25.82,33.867 0,25.387 -16.72,38.086 -50.37,38.086 l -49.96,0 0,-141.172"
         style="fill:#ffffff;fill-opacity:1;fill-rule:evenodd;stroke:none"
         id="path54" /><path
         d="m 1185.58,650.344 0,-141.172 32.16,0 0,57.558 c 0,3.399 0,5.938 0,7.418 l -0.21,7.407 -0.22,8.047 c 0,1.05 0,3.179 -0.41,6.777 l -0.21,5.293 c 1.05,-2.129 1.68,-3.613 2.32,-4.668 0.22,-0.195 1.49,-2.324 3.81,-6.566 l 5.72,-9.723 c 0.22,-0.434 2.33,-3.598 6.14,-9.531 l 5.51,-8.887 34.49,-53.125 29.84,0 0,141.172 -32.17,0 0,-52.285 c 0,-13.11 0.43,-23.286 1.06,-31.743 0,-1.05 0.21,-2.753 0.43,-5.078 -4.24,8.891 -9.94,18.418 -17.78,30.473 l -38.32,58.633 -32.16,0 0,0"
         style="fill:#ffffff;fill-opacity:1;fill-rule:nonzero;stroke:none"
         id="path56" /><path
         d="m 1430.36,579.656 c 0,-26.676 -15.66,-44.453 -39.37,-44.453 -23.91,0 -40.22,17.988 -40.22,44.453 0,26.449 15.88,44.438 39.59,44.438 23.93,0 40,-17.778 40,-44.438 l 0,0 z m 33.65,0.41 c 0,42.129 -31.32,72.817 -74.08,72.817 -41.7,0 -72.6,-31.113 -72.6,-73.227 0,-42.343 30.9,-73.023 73.66,-73.023 42.77,0 73.02,30.469 73.02,73.433 l 0,0"
         style="fill:#ffffff;fill-opacity:1;fill-rule:evenodd;stroke:none"
         id="path58" /><path
         d="m 532.938,235.938 c 12.082,0 18.71,6.398 18.71,18.093 0,11.457 -6.785,18.086 -18.55,18.086 l -6.953,0 0,-36.179 6.793,0 z m 0.46,43.984 c 17.082,0 27.454,-9.824 27.454,-25.969 0,-16.219 -10.215,-26.043 -27.297,-26.043 l -16.145,0 0,52.012 15.988,0"
         style="fill:#ffffff;fill-opacity:1;fill-rule:nonzero;stroke:none"
         id="path60" /><path
         d="m 579.656,258.633 c -3.511,0 -6.551,-2.422 -7.176,-5.774 l 13.958,0 c -1.016,3.899 -3.274,5.774 -6.782,5.774 z m -7.801,-12.324 c 0,-0.235 0,-0.391 0,-0.547 0,-6.543 4.993,-11.375 11.778,-11.375 4.211,0 7.722,1.316 11.222,4.363 l 0,-8.496 c -4.042,-2.188 -8.031,-3.203 -12.472,-3.203 -10.988,0 -18.711,7.804 -18.711,19.101 0,10.84 6.555,18.411 15.984,18.411 9.438,0 14.653,-6.243 15.434,-18.254 l -23.235,0"
         style="fill:#ffffff;fill-opacity:1;fill-rule:nonzero;stroke:none"
         id="path62" /><path
         d="m 614.133,234.543 c 6.148,0 10.68,4.91 10.68,11.531 0,6.399 -4.137,11.153 -9.668,11.153 -2.809,0 -4.84,-0.86 -7.403,-3.274 l 0,-18.015 c 2.485,-1.004 4.278,-1.395 6.391,-1.395 z m -7.09,29.004 0,-3.051 c 3.492,2.734 6.07,3.75 9.82,3.75 9.282,0 16.211,-7.723 16.211,-18.016 0,-10.91 -7.636,-18.945 -18.008,-18.945 -2.5,0 -4.531,0.391 -7.324,1.328 l 0,-16.609 -7.801,0 0,51.543 7.102,0"
         style="fill:#ffffff;fill-opacity:1;fill-rule:nonzero;stroke:none"
         id="path64" /><path
         d="m 652.117,246.465 c -5,0 -8.191,-2.488 -8.191,-6.387 0,-3.437 2.644,-5.93 6.472,-5.93 2.344,0 4.133,0.707 6.782,2.571 l 0,8.808 c -2.024,0.703 -3.196,0.938 -5.063,0.938 z m -12.32,16.301 c 3.125,0.933 6.773,1.48 10.445,1.48 10.688,0 14.582,-3.355 14.582,-12.32 l 0,-15.363 c 0,-0.157 0,-0.313 0,-0.469 0,-4.676 0.235,-5.918 1.785,-8.262 l -8.179,0 c -0.395,0.859 -0.703,1.875 -0.942,2.883 -2.879,-2.18 -5.996,-3.352 -9.195,-3.352 -7.246,0 -12.563,5.071 -12.563,12.012 0,7.715 6.094,12.938 14.829,12.938 2.41,0 4.441,-0.387 6.699,-1.09 0,0.308 0,0.547 0,0.625 0,4.05 -2.57,5.925 -8.266,5.925 -3.199,0 -6.07,-0.781 -9.195,-2.421 l 0,7.414"
         style="fill:#ffffff;fill-opacity:1;fill-rule:nonzero;stroke:none"
         id="path66" /><path
         d="m 678.176,263.547 0,-3.508 c 3.269,2.957 5.293,3.899 8.57,3.899 1.801,0 2.883,-0.239 4.902,-1.094 l 0,-8.11 c -2.332,1.164 -3.882,1.633 -5.679,1.633 -2.656,0 -5.071,-1.164 -7.246,-3.429 l 0,-25.028 -7.805,0 0,35.637 7.258,0"
         style="fill:#ffffff;fill-opacity:1;fill-rule:nonzero;stroke:none"
         id="path68" /><path
         d="m 703.281,263.547 9.59,0 0,-7.024 -9.59,0 0,-14.035 c 0,-6.082 1.172,-7.945 5.305,-7.945 1.559,0 2.652,0.312 4.285,1.238 l 0,-7.324 c -2.336,-0.781 -4.055,-1.094 -6.16,-1.094 -7.563,0 -11.231,4.055 -11.231,12.559 l 0,16.601 -5.609,0 0,7.024 5.609,0 0,10.371 7.801,3.27 0,-13.641"
         style="fill:#ffffff;fill-opacity:1;fill-rule:nonzero;stroke:none"
         id="path70" /><path
         d="m 730.105,246.465 c -4.976,0 -8.179,-2.488 -8.179,-6.387 0,-3.437 2.652,-5.93 6.465,-5.93 2.339,0 4.136,0.707 6.797,2.571 l 0,8.808 c -2.036,0.703 -3.208,0.938 -5.083,0.938 z m -12.312,16.301 c 3.113,0.933 6.785,1.48 10.449,1.48 10.676,0 14.578,-3.355 14.578,-12.32 l 0,-15.363 c 0,-0.157 0,-0.313 0,-0.469 0,-4.676 0.239,-5.918 1.797,-8.262 l -8.191,0 c -0.391,0.859 -0.696,1.875 -0.93,2.883 -2.891,-2.18 -6.016,-3.352 -9.207,-3.352 -7.258,0 -12.551,5.071 -12.551,12.012 0,7.715 6.075,12.938 14.809,12.938 2.422,0 4.449,-0.387 6.719,-1.09 0,0.308 0,0.547 0,0.625 0,4.05 -2.578,5.925 -8.274,5.925 -3.191,0 -6.086,-0.781 -9.199,-2.421 l 0,7.414"
         style="fill:#ffffff;fill-opacity:1;fill-rule:nonzero;stroke:none"
         id="path72" /><path
         d="m 756.711,263.547 0,-3.195 c 2.652,2.57 5.691,3.82 9.434,3.82 3.906,0 7.019,-1.406 9.507,-4.367 2.817,2.961 6.172,4.441 10.293,4.441 8.352,0 12.641,-4.676 12.641,-13.648 l 0,-22.688 -7.719,0 0,21.133 c 0,5.691 -1.875,8.027 -6.394,8.027 -2.41,0 -4.754,-1.093 -6.551,-3.039 l 0,-26.121 -7.719,0 0,21.055 c 0,5.613 -1.875,8.027 -6.238,8.027 -2.488,0 -4.754,-1.094 -6.863,-3.347 l 0,-25.735 -7.637,0 0,35.637 7.246,0"
         style="fill:#ffffff;fill-opacity:1;fill-rule:nonzero;stroke:none"
         id="path74" /><path
         d="m 818.801,258.633 c -3.508,0 -6.543,-2.422 -7.168,-5.774 l 13.941,0 c -1.004,3.899 -3.261,5.774 -6.773,5.774 z m -7.793,-12.324 c 0,-0.235 0,-0.391 0,-0.547 0,-6.543 4.976,-11.375 11.773,-11.375 4.199,0 7.715,1.316 11.223,4.363 l 0,-8.496 c -4.055,-2.188 -8.035,-3.203 -12.473,-3.203 -10.996,0 -18.711,7.804 -18.711,19.101 0,10.84 6.543,18.411 15.981,18.411 9.429,0 14.656,-6.243 15.437,-18.254 l -23.23,0"
         style="fill:#ffffff;fill-opacity:1;fill-rule:nonzero;stroke:none"
         id="path76" /><path
         d="m 846.34,263.469 0,-3.274 c 3.047,2.801 6.148,4.051 10.055,4.051 8.339,0 12.558,-4.832 12.558,-14.344 l 0,-21.992 -7.723,0 0,19.961 c 0,6.555 -1.867,9.043 -6.789,9.043 -2.8,0 -5.293,-1.172 -7.711,-3.66 l 0,-25.344 -7.714,0 0,35.559 7.324,0"
         style="fill:#ffffff;fill-opacity:1;fill-rule:nonzero;stroke:none"
         id="path78" /><path
         d="m 884.016,263.547 9.589,0 0,-7.024 -9.589,0 0,-14.035 c 0,-6.082 1.172,-7.945 5.293,-7.945 1.558,0 2.656,0.312 4.296,1.238 l 0,-7.324 c -2.343,-0.781 -4.062,-1.094 -6.171,-1.094 -7.563,0 -11.223,4.055 -11.223,12.559 l 0,16.601 -5.613,0 0,7.024 5.613,0 0,10.371 7.805,3.27 0,-13.641"
         style="fill:#ffffff;fill-opacity:1;fill-rule:nonzero;stroke:none"
         id="path80" /><path
         d="m 911.77,257.383 c -5.762,0 -9.512,-4.602 -9.512,-11.856 0,-6.855 3.75,-11.535 9.43,-11.535 5.707,0 9.511,4.524 9.511,11.457 0,7.332 -3.648,11.934 -9.429,11.934 z m -0.082,-30.41 c -10.211,0 -17.618,7.8 -17.618,18.632 0,10.918 7.407,18.797 17.7,18.797 10.21,0 17.632,-7.879 17.632,-18.718 0,-10.911 -7.422,-18.711 -17.714,-18.711"
         style="fill:#ffffff;fill-opacity:1;fill-rule:nonzero;stroke:none"
         id="path82" /><path
         d="m 967.004,257.461 c -5.859,0 -10.063,-4.832 -10.063,-11.621 0,-6.543 4.043,-11.223 9.668,-11.223 2.739,0 4.829,0.93 7.329,3.039 l 0,17.317 c -2.661,1.863 -4.434,2.488 -6.934,2.488 z m 14.644,-29.551 -7.085,0 0,3.274 c -3.286,-2.727 -6,-3.821 -9.907,-3.821 -9.351,0 -15.972,7.41 -15.972,18.008 0,11.074 7.086,18.953 17.144,18.953 3.125,0 5.293,-0.547 8.11,-2.105 l 0,17.703 7.71,0 0,-52.012"
         style="fill:#ffffff;fill-opacity:1;fill-rule:nonzero;stroke:none"
         id="path84" /><path
         d="m 1002.1,258.633 c -3.514,0 -6.541,-2.422 -7.166,-5.774 l 13.946,0 c -1.02,3.899 -3.26,5.774 -6.78,5.774 z m -7.791,-12.324 c 0,-0.235 0,-0.391 0,-0.547 0,-6.543 4.976,-11.375 11.771,-11.375 4.2,0 7.72,1.316 11.23,4.363 l 0,-8.496 c -4.06,-2.188 -8.04,-3.203 -12.48,-3.203 -10.99,0 -18.709,7.804 -18.709,19.101 0,10.84 6.547,18.411 15.979,18.411 9.43,0 14.67,-6.243 15.45,-18.254 l -23.241,0"
         style="fill:#ffffff;fill-opacity:1;fill-rule:nonzero;stroke:none"
         id="path86" /><path
         d="m 1073.99,279.922 0,-7.879 -24.08,0 0,-11.848 23.85,0 0,-7.961 -23.85,0 0,-16.296 24.08,0 0,-8.028 -32.81,0 0,52.012 32.81,0"
         style="fill:#ffffff;fill-opacity:1;fill-rule:nonzero;stroke:none"
         id="path88" /><path
         d="m 1096.94,257.461 c -5.86,0 -10.06,-4.832 -10.06,-11.621 0,-6.543 4.05,-11.223 9.67,-11.223 2.74,0 4.83,0.93 7.33,3.039 l 0,17.317 c -2.66,1.863 -4.44,2.488 -6.94,2.488 z m 14.65,-29.551 -7.09,0 0,3.274 c -3.28,-2.727 -5.99,-3.821 -9.9,-3.821 -9.36,0 -15.98,7.41 -15.98,18.008 0,11.074 7.09,18.953 17.15,18.953 3.13,0 5.29,-0.547 8.11,-2.105 l 0,17.703 7.71,0 0,-52.012"
         style="fill:#ffffff;fill-opacity:1;fill-rule:nonzero;stroke:none"
         id="path90" /><path
         d="m 1148.02,227.91 -7.25,0 0,3.274 c -3.26,-2.805 -6.23,-3.977 -10.14,-3.977 -8.1,0 -12.55,4.836 -12.55,13.723 l 0,22.617 7.73,0 0,-20.117 c 0,-6.321 1.93,-8.965 6.7,-8.965 2.81,0 5.29,1.082 7.95,3.504 l 0,25.578 7.56,0 0,-35.637"
         style="fill:#ffffff;fill-opacity:1;fill-rule:nonzero;stroke:none"
         id="path92" /><path
         d="m 1179.23,255.051 c -2.74,1.472 -4.85,2.097 -7.25,2.097 -6.33,0 -10.92,-4.914 -10.92,-11.543 0,-6.464 4.52,-11.218 10.77,-11.218 2.48,0 4.59,0.547 7.4,2.019 l 0,-8.027 c -2.81,-0.938 -5.45,-1.406 -8.34,-1.406 -10.29,0 -18.17,8.039 -18.17,18.476 0,10.84 7.95,18.875 18.64,18.875 3.02,0 5.13,-0.386 7.87,-1.402 l 0,-7.871"
         style="fill:#ffffff;fill-opacity:1;fill-rule:nonzero;stroke:none"
         id="path94" /><path
         d="m 1198.1,246.465 c -4.98,0 -8.19,-2.488 -8.19,-6.387 0,-3.437 2.66,-5.93 6.49,-5.93 2.32,0 4.12,0.707 6.77,2.571 l 0,8.808 c -2.03,0.703 -3.2,0.938 -5.07,0.938 z m -12.31,16.301 c 3.11,0.933 6.78,1.48 10.45,1.48 10.68,0 14.57,-3.355 14.57,-12.32 l 0,-15.363 c 0,-0.157 0,-0.313 0,-0.469 0,-4.676 0.23,-5.918 1.8,-8.262 l -8.19,0 c -0.39,0.859 -0.7,1.875 -0.93,2.883 -2.89,-2.18 -6,-3.352 -9.2,-3.352 -7.25,0 -12.56,5.071 -12.56,12.012 0,7.715 6.07,12.938 14.82,12.938 2.41,0 4.44,-0.387 6.7,-1.09 0,0.308 0,0.547 0,0.625 0,4.05 -2.58,5.925 -8.26,5.925 -3.2,0 -6.09,-0.781 -9.2,-2.421 l 0,7.414"
         style="fill:#ffffff;fill-opacity:1;fill-rule:nonzero;stroke:none"
         id="path96" /><path
         d="m 1241.61,255.051 c -2.71,1.472 -4.82,2.097 -7.24,2.097 -6.31,0 -10.92,-4.914 -10.92,-11.543 0,-6.464 4.53,-11.218 10.76,-11.218 2.5,0 4.61,0.547 7.4,2.019 l 0,-8.027 c -2.79,-0.938 -5.45,-1.406 -8.34,-1.406 -10.29,0 -18.16,8.039 -18.16,18.476 0,10.84 7.95,18.875 18.63,18.875 3.05,0 5.16,-0.386 7.87,-1.402 l 0,-7.871"
         style="fill:#ffffff;fill-opacity:1;fill-rule:nonzero;stroke:none"
         id="path98" /><path
         d="m 1253.56,227.91 -7.73,0 0,35.637 7.73,0 0,-35.637 z m -3.82,40.625 c -2.74,0 -4.98,2.258 -4.98,4.988 0,2.727 2.24,4.993 4.98,4.993 2.73,0 4.92,-2.266 4.92,-4.993 0,-2.73 -2.19,-4.988 -4.92,-4.988"
         style="fill:#ffffff;fill-opacity:1;fill-rule:nonzero;stroke:none"
         id="path100" /><path
         d="m 1278.84,268.301 -6.41,0 5.7,9.824 9.28,0 -8.57,-9.824 z m -3.13,-10.918 c -5.78,0 -9.51,-4.602 -9.51,-11.856 0,-6.855 3.73,-11.535 9.43,-11.535 5.69,0 9.52,4.524 9.52,11.457 0,7.332 -3.68,11.934 -9.44,11.934 z m -0.08,-30.41 c -10.21,0 -17.61,7.8 -17.61,18.632 0,10.918 7.4,18.797 17.69,18.797 10.22,0 17.62,-7.879 17.62,-18.718 0,-10.911 -7.4,-18.711 -17.7,-18.711"
         style="fill:#ffffff;fill-opacity:1;fill-rule:nonzero;stroke:none"
         id="path102" /><path
         d="m 1305.21,263.469 0,-3.274 c 3.02,2.801 6.15,4.051 10.05,4.051 8.34,0 12.54,-4.832 12.54,-14.344 l 0,-21.992 -7.71,0 0,19.961 c 0,6.555 -1.88,9.043 -6.78,9.043 -2.81,0 -5.31,-1.172 -7.71,-3.66 l 0,-25.344 -7.74,0 0,35.559 7.35,0"
         style="fill:#ffffff;fill-opacity:1;fill-rule:nonzero;stroke:none"
         id="path104" /><path
         d="m 1337.33,218.398 c 2.35,3.582 3.6,6.707 3.91,9.434 -0.16,0 -0.31,0 -0.47,0 -2.89,0 -5.08,2.266 -5.08,5.227 0,3.191 2.43,5.691 5.55,5.691 3.42,0 5.84,-2.969 5.84,-7.02 0,-3.898 -2.27,-8.578 -6.31,-13.332 l -3.44,0"
         style="fill:#ffffff;fill-opacity:1;fill-rule:nonzero;stroke:none"
         id="path106" /><path
         d="m 552.434,189.238 c -4.454,2.332 -7.493,3.196 -11.313,3.196 -10.445,0 -18.008,-7.871 -18.008,-18.789 0,-10.84 7.407,-18.79 17.7,-18.79 4.05,0 7.792,1.083 11.621,3.27 l 0,-8.965 c -4.219,-1.719 -7.649,-2.422 -11.938,-2.422 -15.281,0 -26.59,11.465 -26.59,27.063 0,15.203 11.465,26.734 26.516,26.734 3.973,0 7.398,-0.613 12.012,-2.254 l 0,-9.043"
         style="fill:#ffffff;fill-opacity:1;fill-rule:nonzero;stroke:none"
         id="path108" /><path
         d="m 586.516,147.832 -7.246,0 0,3.273 c -3.286,-2.804 -6.25,-3.976 -10.137,-3.976 -8.117,0 -12.563,4.836 -12.563,13.723 l 0,22.617 7.715,0 0,-20.117 c 0,-6.321 1.953,-8.965 6.711,-8.965 2.805,0 5.305,1.082 7.957,3.504 l 0,25.578 7.563,0 0,-35.637"
         style="fill:#ffffff;fill-opacity:1;fill-rule:nonzero;stroke:none"
         id="path110" /><path
         d="m 593.313,147.832 7.63281,0 0,52.0117 -7.63281,0 0,-52.0117 z"
         style="fill:#ffffff;fill-opacity:1;fill-rule:nonzero;stroke:none"
         id="path112" /><path
         d="m 616.238,183.469 9.59,0 0,-7.024 -9.59,0 0,-14.035 c 0,-6.082 1.172,-7.945 5.293,-7.945 1.567,0 2.657,0.308 4.297,1.238 l 0,-7.324 c -2.344,-0.781 -4.058,-1.094 -6.16,-1.094 -7.566,0 -11.23,4.055 -11.23,12.559 l 0,16.601 -5.618,0 0,7.024 5.618,0 0,10.371 7.8,3.269 0,-13.64"
         style="fill:#ffffff;fill-opacity:1;fill-rule:nonzero;stroke:none"
         id="path114" /><path
         d="m 658.035,147.832 -7.242,0 0,3.273 c -3.281,-2.804 -6.25,-3.976 -10.141,-3.976 -8.113,0 -12.554,4.836 -12.554,13.723 l 0,22.617 7.715,0 0,-20.117 c 0,-6.321 1.953,-8.965 6.707,-8.965 2.8,0 5.3,1.082 7.96,3.504 l 0,25.578 7.555,0 0,-35.637"
         style="fill:#ffffff;fill-opacity:1;fill-rule:nonzero;stroke:none"
         id="path116" /><path
         d="m 671.77,183.469 0,-3.508 c 3.281,2.961 5.308,3.894 8.574,3.894 1.797,0 2.886,-0.234 4.922,-1.089 l 0,-8.11 c -2.344,1.164 -3.911,1.633 -5.696,1.633 -2.644,0 -5.066,-1.16 -7.257,-3.43 l 0,-25.027 -7.793,0 0,35.637 7.25,0"
         style="fill:#ffffff;fill-opacity:1;fill-rule:nonzero;stroke:none"
         id="path118" /><path
         d="m 702.891,166.387 c -4.993,0 -8.196,-2.492 -8.196,-6.387 0,-3.437 2.66,-5.93 6.489,-5.93 2.332,0 4.121,0.703 6.777,2.571 l 0,8.808 c -2.031,0.703 -3.203,0.938 -5.07,0.938 z m -12.317,16.301 c 3.11,0.933 6.781,1.484 10.449,1.484 10.676,0 14.575,-3.359 14.575,-12.324 l 0,-15.364 c 0,-0.156 0,-0.312 0,-0.468 0,-4.676 0.23,-5.918 1.797,-8.262 l -8.184,0 c -0.395,0.859 -0.703,1.875 -0.941,2.883 -2.887,-2.18 -6.004,-3.352 -9.2,-3.352 -7.254,0 -12.554,5.07 -12.554,12.012 0,7.715 6.082,12.937 14.812,12.937 2.41,0 4.442,-0.386 6.707,-1.089 0,0.308 0,0.543 0,0.625 0,4.05 -2.574,5.925 -8.262,5.925 -3.203,0 -6.089,-0.781 -9.199,-2.422 l 0,7.415"
         style="fill:#ffffff;fill-opacity:1;fill-rule:nonzero;stroke:none"
         id="path120" /><path
         d="m 743.684,183.469 6.004,-15.051 c 0.234,-0.547 0.468,-1.172 0.703,-1.875 0.39,-0.938 0.703,-1.555 0.781,-1.941 0.547,-1.25 0.848,-1.957 0.848,-2.114 0.238,-0.468 0.546,-1.25 0.941,-2.332 0.391,1.239 0.625,2.024 0.777,2.41 l 0.703,2.036 0.704,2.019 c 0.082,0.313 0.316,0.938 0.625,1.797 l 5.773,15.051 8.496,0 -20.586,-51.621 -8.496,0 7.961,18.945 -13.813,32.676 8.579,0"
         style="fill:#ffffff;fill-opacity:1;fill-rule:nonzero;stroke:none"
         id="path122" /><path
         d="m 807.258,155.859 c 12.078,0 18.711,6.399 18.711,18.094 0,11.457 -6.789,18.09 -18.559,18.09 l -6.949,0 0,-36.184 6.797,0 z m 0.457,43.985 c 17.082,0 27.453,-9.824 27.453,-25.965 0,-16.223 -10.219,-26.047 -27.297,-26.047 l -16.141,0 0,52.012 15.985,0"
         style="fill:#ffffff;fill-opacity:1;fill-rule:nonzero;stroke:none"
         id="path124" /><path
         d="m 853.977,178.555 c -3.516,0 -6.555,-2.422 -7.18,-5.774 l 13.957,0 c -1.02,3.899 -3.274,5.774 -6.777,5.774 z m -7.805,-12.325 c 0,-0.234 0,-0.39 0,-0.546 0,-6.543 4.988,-11.375 11.777,-11.375 4.207,0 7.727,1.316 11.223,4.363 l 0,-8.496 c -4.043,-2.188 -8.027,-3.203 -12.473,-3.203 -10.984,0 -18.711,7.8 -18.711,19.101 0,10.84 6.555,18.406 15.989,18.406 9.429,0 14.644,-6.238 15.425,-18.25 l -23.23,0"
         style="fill:#ffffff;fill-opacity:1;fill-rule:nonzero;stroke:none"
         id="path126" /><path
         d="m 888.445,154.465 c 6.157,0 10.688,4.91 10.688,11.531 0,6.399 -4.145,11.152 -9.668,11.152 -2.817,0 -4.848,-0.859 -7.402,-3.269 l 0,-18.02 c 2.48,-1.004 4.277,-1.394 6.382,-1.394 z m -7.09,29.004 0,-3.047 c 3.5,2.73 6.079,3.75 9.829,3.75 9.277,0 16.211,-7.727 16.211,-18.02 0,-10.91 -7.637,-18.945 -18.008,-18.945 -2.5,0 -4.532,0.391 -7.324,1.328 l 0,-16.609 -7.805,0 0,51.543 7.097,0"
         style="fill:#ffffff;fill-opacity:1;fill-rule:nonzero;stroke:none"
         id="path128" /><path
         d="m 927.371,177.305 c -5.777,0 -9.512,-4.602 -9.512,-11.856 0,-6.855 3.735,-11.531 9.438,-11.531 5.683,0 9.512,4.52 9.512,11.453 0,7.332 -3.672,11.934 -9.438,11.934 z m -0.074,-30.41 c -10.219,0 -17.617,7.8 -17.617,18.632 0,10.918 7.398,18.797 17.691,18.797 10.219,0 17.617,-7.879 17.617,-18.719 0,-10.91 -7.398,-18.71 -17.691,-18.71"
         style="fill:#ffffff;fill-opacity:1;fill-rule:nonzero;stroke:none"
         id="path130" /><path
         d="m 956.395,183.469 0,-3.508 c 3.261,2.961 5.293,3.894 8.578,3.894 1.797,0 2.886,-0.234 4.898,-1.089 l 0,-8.11 c -2.32,1.164 -3.887,1.633 -5.683,1.633 -2.657,0 -5.079,-1.16 -7.247,-3.43 l 0,-25.027 -7.808,0 0,35.637 7.262,0"
         style="fill:#ffffff;fill-opacity:1;fill-rule:nonzero;stroke:none"
         id="path132" /><path
         d="m 981.516,183.469 9.589,0 0,-7.024 -9.589,0 0,-14.035 c 0,-6.082 1.152,-7.945 5.293,-7.945 1.558,0 2.656,0.308 4.296,1.238 l 0,-7.324 c -2.343,-0.781 -4.062,-1.094 -6.171,-1.094 -7.563,0 -11.235,4.055 -11.235,12.559 l 0,16.601 -5.601,0 0,7.024 5.601,0 0,10.371 7.817,3.269 0,-13.64"
         style="fill:#ffffff;fill-opacity:1;fill-rule:nonzero;stroke:none"
         id="path134" /><path
         d="m 1007.33,178.555 c -3.51,0 -6.56,-2.422 -7.18,-5.774 l 13.96,0 c -1.01,3.899 -3.28,5.774 -6.78,5.774 z m -7.81,-12.325 c 0,-0.234 0,-0.39 0,-0.546 0,-6.543 5,-11.375 11.78,-11.375 4.22,0 7.71,1.316 11.23,4.363 l 0,-8.496 c -4.06,-2.188 -8.03,-3.203 -12.48,-3.203 -10.995,0 -18.71,7.8 -18.71,19.101 0,10.84 6.558,18.406 15.99,18.406 9.44,0 14.65,-6.238 15.43,-18.25 l -23.24,0"
         style="fill:#ffffff;fill-opacity:1;fill-rule:nonzero;stroke:none"
         id="path136" /></g></g></svg>