<svg xmlns="http://www.w3.org/2000/svg" viewBox="0 0 500 500" enable-background="new 0 0 500 500"><symbol viewBox="-43.3 -24.308 86.601 48.615"><path d="m5.686-.627c1.832.187 10.265 1.089 10.265 1.089l-5.789-.29c-2.376-.178-3.798-1.327-5.737-1.524l1.261.725" fill="#009640"/><path d="m14 2.836c11.08-1.473 22.738-5.22 22.738-5.22-8.61 3.471-14.548 4.557-24.265 6.294l1.527-1.074" fill="#009640"/><path d="m21.07 1.192c1.534-.873 8.368-4.171 8.368-4.171l-4.793 1.767c-2.02 1.083-2.705 2.551-4.328 3.475l.753-1.071" fill="#009640"/><path d="m26.23-.312c1.534-.874 6.964-3.67 6.964-3.67l-2.589 1.452c-1.426 1.029-3.505 2.363-5.128 3.288l.753-1.07" fill="#009640"/><path d="m28.411-.611c1.534-.873 6.964-3.669 6.964-3.669l-3.649 1.72c-1.426 1.029-2.446 2.095-4.069 3.02l.754-1.07" fill="#009640"/><path d="m25.492 2.69c1.513.024 6.589.35 6.589.35l-3.658.007c-1.938.005-4.14-1.195-5.742-1.222l2.811.865" fill="#009640"/><path d="m29.367 1.99c2.083-.011 7.31-.459 7.31-.459l-3.492.034c-2.175-.148-5.164-.243-7.368-.232l3.55.657" fill="#009640"/><path d="m29.875.511c1.707.008 7.644-.83 7.644-.83l-4.13.912c-1.788-.137-3.138-.463-4.945-.471l1.431.389" fill="#009640"/><path d="m17.682 1.69c1.534-.873 8.573-4.93 8.573-4.93l-4.998 2.525c-2.02 1.084-2.705 2.551-4.328 3.475l.753-1.07" fill="#009640"/><path d="m15.313 1.829c1.533-.874 8.573-4.93 8.573-4.93l-4.999 2.525c-2.02 1.083-2.705 2.55-4.328 3.475l.754-1.07" fill="#009640"/><path d="m19.669 3.057c1.452.17 9.72.986 9.72.986l-5.241-.007c-1.871-.181-4.067-1.279-5.603-1.459l1.124.48" fill="#009640"/><path d="m17.654 4.065c1.658.16 9.295.937 9.295.937l-5.242-.249c-2.151-.153-3.439-1.143-5.195-1.313l1.142.625" fill="#009640"/><path d="m-5.318 7.132c1.641.8 5.428 3.405 5.428 3.405l-2.739-1.363c-1.841-.608-4.284-1.598-6.02-2.443l3.332.401" fill="#009640"/><path d="m-1.735 1.377c5.02 5.233 8.85 13.01 8.85 13.01-2.368-6.468-4.862-9.578-8.969-14.628l.119 1.62" fill="#009640"/><path d="m1 5.443c.254 1.415 1.776 7.109 1.776 7.109l-1.427-3.43c-.38-1.795.217-3.538-.052-5.04l-.297 1.357" fill="#009640"/><path d="m2.798 8.724c.254 1.415 1.348 6.121 1.348 6.121l-.443-2.367c-.093-1.539-.338-3.614-.607-5.112l-.298 1.358" fill="#009640"/><path d="m4.943 11.601c.174.861 1.972 4.03 1.972 4.03l-1.341-1.751c-.057-.939-.22-2.201-.405-3.113l-.226.831" fill="#009640"/><path d="m6.825 14.427c.384.715 1.794 3.807 1.794 3.807l-.856-2.156c-.226-.799-.655-1.86-1.062-2.617l.124.966" fill="#009640"/><path d="m3.781 9.765c.254 1.415 1.348 6.121 1.348 6.121l-.839-2.999c-.093-1.539.057-2.981-.212-4.479l-.297 1.357" fill="#009640"/><path d="m4.377 5.378c.834.481 3.79 1.847 3.79 1.847l-1.972-1.233c-1.044-.654-3.02-.153-3.906-.663l2.088.049" fill="#009640"/><path d="m6.01 7.399c1.118.709 3.647 2.924 3.647 2.924l-1.864-1.206c-1.273-.575-2.95-1.478-4.134-2.229l2.351.511" fill="#009640"/><path d="m6.257 11.311c.62.542 2.414 3.716 2.414 3.716l-.843-2.107c-.731-.455-1.679-1.155-2.335-1.729l.764.12" fill="#009640"/><path d="m5.311 9.1c.927.565 3.583 3.42 3.583 3.42l-1.631-2.326c-1.056-.457-2-.573-2.982-1.172l1.03.078" fill="#009640"/><path d="m-.501 3.793c.254 1.416 1.388 7.961 1.388 7.961l-1.039-4.281c-.38-1.796.217-3.539-.052-5.04l-.297 1.357" fill="#009640"/><path d="m1.472 3.049c.896.312 5.9 2.239 5.9 2.239l-2.835-1.749c-1.13-.441-3.039-.042-3.988-.372l.923-.118" fill="#009640"/><path d="m1.047 1.333c1 .391 5.638 2.147 5.638 2.147l-2.997-1.499c-1.263-.563-2.609.026-3.67-.387l1.029-.261" fill="#009640"/><path d="m10.392 4.123c5.327 4.498 9.139 10.947 9.139 10.947-2.24-5.313-4.853-7.954-9.162-12.247l.023 1.3" fill="#009640"/><path d="m13.217 7.543c.191 1.146 1.526 5.786 1.526 5.786l-1.382-2.828c-.307-1.457.489-2.81.286-4.02l-.43 1.064" fill="#009640"/><path d="m15.03 10.275c.191 1.146 1.108 4.971 1.108 4.971l-.34-1.917c0-1.234-.136-2.904-.338-4.117l-.43 1.063" fill="#009640"/><path d="m17.261 12.709c.139.698 1.958 3.345 1.958 3.345l-1.399-1.483c0-.752-.099-1.771-.246-2.51l-.313.648" fill="#009640"/><path d="m19.2 15.09c.386.595 1.772 3.151 1.772 3.151l-.822-1.774c-.201-.652-.615-1.526-1.024-2.156l.074.779" fill="#009640"/><path d="m16.07 11.17c.191 1.145 1.108 4.97 1.108 4.97l-.746-2.446c0-1.234.27-2.375.068-3.588l-.43 1.064" fill="#009640"/><path d="m17.05 7.708c.912.438 4.169 1.718 4.169 1.718l-2.15-1.11c-1.139-.589-3.417-.316-4.382-.78l2.363.172" fill="#009640"/><path d="m18.758 9.426c1.219.638 3.934 2.567 3.934 2.567l-2.03-1.082c-1.404-.541-3.243-1.369-4.533-2.045l2.629.56" fill="#009640"/><path d="m18.77 12.563c.665.473 2.481 3.12 2.481 3.12l-.811-1.735c-.798-.41-1.825-1.03-2.529-1.53l.859.145" fill="#009640"/><path d="m17.849 10.734c1.012.511 3.828 2.959 3.828 2.959l-1.689-1.961c-1.166-.433-2.228-.586-3.3-1.126l1.161.128" fill="#009640"/><path d="m11.625 6.13c.191 1.146 1.027 6.44 1.027 6.44l-.884-3.482c-.307-1.457.489-2.81.288-4.02l-.431 1.064" fill="#009640"/><path d="m10.342 5.306c.19 1.146 1.027 6.44 1.027 6.44l-.884-3.482c-.307-1.457.489-2.81.287-4.02l-.43 1.063" fill="#009640"/><path d="m13.914 5.663c.995.307 6.534 2.167 6.534 2.167l-3.094-1.579c-1.251-.423-3.442-.228-4.495-.553l1.055-.035" fill="#009640"/><path d="m13.549 4.267c1.108.376 6.245 2.077 6.245 2.077l-3.294-1.39c-1.394-.53-2.96-.147-4.134-.545l1.183-.142" fill="#009640"/><path d="m22.362 7.215c9.256 2.037 17.473 6.526 17.473 6.526-5.58-4.067-10.335-5.474-18.14-7.737l.671 1.211" fill="#009640"/><path d="m27.781 9.267c.817.997 4.87 4.805 4.87 4.805l-3.222-2.087c-1.125-1.242-.74-2.838-1.606-3.893l-.042 1.175" fill="#009640"/><path d="m31.521 11.09c.817.997 3.916 4.211 3.916 4.211l-1.395-1.66c-.609-1.158-1.613-2.67-2.478-3.726l-.043 1.175" fill="#009640"/><path d="m35.671 12.457c.528.599 4.237 2.336 4.237 2.336l-2.581-.817c-.371-.707-1-1.622-1.563-2.256l-.093.737" fill="#009640"/><path d="m39.41 13.892c.804.4 3.896 2.231 3.896 2.231l-1.962-1.328c-.587-.529-1.566-1.181-2.417-1.604l.483.701" fill="#009640"/><path d="m33.34 11.5c.817.997 3.915 4.211 3.915 4.211l-2.191-1.99c-.609-1.159-.816-2.34-1.681-3.396l-.043 1.175" fill="#009640"/><path d="m32.921 7.851c1.421.037 6.354-.098 6.354-.098l-3.388-.16c-1.795-.086-4.669 1.104-6.174 1.064l3.208-.806" fill="#009640"/><path d="m36.03 8.761c1.925.099 6.463.797 6.463.797l-3.215-.183c-2.121.067-4.959.044-6.997-.061l3.749-.553" fill="#009640"/><path d="m37.593 11.701c1.112.17 4.817 1.91 4.817 1.91l-1.928-1.297c-1.256-.057-2.918-.218-4.095-.398l1.206-.215" fill="#009640"/><path d="m35.475 10.362c1.589.064 6.515 1.207 6.515 1.207l-3.199-1.146c-1.753.071-3.231.362-4.914.295l1.598-.356" fill="#009640"/><path d="m24.982 8.593c.817.997 4.534 5.624 4.534 5.624l-2.885-2.907c-1.125-1.241-.741-2.837-1.605-3.892l-.044 1.175" fill="#009640"/><path d="m22.879 8.346c.817.997 4.534 5.624 4.534 5.624l-2.885-2.906c-1.125-1.242-.741-2.838-1.605-3.893l-.044 1.175" fill="#009640"/><path d="m27.773 7.216c1.465-.12 9.7-.645 9.7-.645l-4.866-.213c-1.861.115-4.66 1.196-6.21 1.324l1.376-.466" fill="#009640"/><path d="m26.603 6.05c1.65-.102 9.273-.611 9.273-.611l-5.04.046c-2.102.074-3.983 1.076-5.729 1.185l1.492-.62" fill="#009640"/></symbol><path d="m349.27 21.646c-25.06-.737-45.7 9.582-63.39 30.22-17.69 21.375-26.536 46.44-27.27 76.66 0 29.482 8.107 55.28 25.06 77.39 4.423 5.896 8.846 11.06 14 14.741 14 11.793 29.483 17.69 47.911 17.69 22.85.737 43.488-8.845 60.44-28.01.736-.737 1.474-1.474 2.211-2.949 17.689-20.638 27.27-45.698 27.27-75.918.736-29.483-7.371-55.28-24.324-77.39-17.69-21.375-37.591-32.431-61.914-32.431" fill="#f9ece7"/><g fill-rule="evenodd"><path d="m240.07 408.97l8.128 54.05-8.128-54.05" fill="#e6e5e5"/><g fill="#f9ece7"><path d="m314.07 233.74c0 0-1.228 21.999-19.08 23.657 7.466 25.316 28.2 53.951 47.714 53.951 19.51 0 49.804-33.612 50.634-50.633-8.296-4.147-9.955-6.637-9.955-6.637l-1.659-21.997c0 0-29.4 7.466-50.633 7.466-5.807 0-17.02-5.807-17.02-5.807"/><path d="m236.65 362.75c0 0-28.757-42.954-30.544-40.964-16.678 18.571-38.936 39.979-38.936 39.979l-42.619-46.842c0 0 10.9-41.621 10.04-59.3-9.646-15.555-21.2 23.14-21.2 23.14s-3.441-31.685-8.125-44.19c-2.01-5.378-4.208-9.715-6.364-11.12-7.17-4.672-1.363 44.503-1.363 44.503s-15.338-26.836-23.726-36.36c0 0-7.666-6.852-8.546-1.318-1.351 8.483 20.02 49.11 20.02 49.11s-24.11-30.753-31.33-33.954c-7.221-3.2-8.866 4.294-4.692 10.336 4.173 6.04 21.22 33.64 21.22 33.64s-20.461-14.67-26.557-8.986c-6.094 5.684 45.09 45.586 52.45 45.844 18.844 33.3 54 95.76 73.906 92.97 31.32-16.566 71.31-57.36 71.31-57.36l-4.935.88"/></g><path d="m294.04 256.82c0 0-63.57 17.669-90.94 60.918 12.369 15.882 32.668 46.782 32.668 46.782l31.784-26.482-15.02 139.48h179.2l-8.813-104.17c0 0 39.735-.884 49.43-7.07-8.834-30.02-21.18-67.966-29.13-75.03-7.951-7.07-37.06-26.483-46.782-31.784-12.369 30.02-37.969 52.08-55.617 51.2-21.18-2.65-34.414-30.881-39.715-39.715-5.302-8.835-7.07-14.14-7.07-14.14" fill="#d8e17d"/><path fill="#f9ece7" d="m470.59 475.76h-39.74l-7.93-102.4 39.72-4.42z"/><path d="m382.72 234.99l11.303 16.69c4.125-10.616 5.901-24.49 5.901-24.49 9.07 20.224 2.454 22.797 2.454 22.797s21.04-20.795 22.267-38.28c3.611 11.386 5.712 19.63 5.712 19.63s9.216-63.734 7.113-91.57c10.352 1.537 5.03-12.192 5.03-12.192s-1.544-15.235-7.309-34.17c0 0-19.866-62.33-78.04-70.812l-3.8.142c0 0-31.14-5.823-58.814 12.728-24.673 15.943-48.951 63.11-51.827 116.89 3.896-5.04 15.72-15.365 15.72-15.365s-6.444 71.37-3.02 85.78c10.906-16.929 12.785-18.19 12.785-18.19s9.667 35.448 3.412 38.05c8.783 4.663 15.934-5.611 22.565-13.604 2.804 2.658 7.147 21.253 9.159 23.15 0 0 11-6.986 11-20.1-22.03-14.01-52.982-30.06-53.874-98.83 18.467 1.783 32.1-16.684 38.974-22.03 6.877-5.35 22.03-20.25 22.03-20.25s44.874 39.04 74.04 28.344c-17.832-8.916-16.854-27.452-16.854-27.452s28.755 20.49 43.912 18.707c5.35 25.6 11.02 53.39-5.83 89.68-18.467 21.398-34.516 30.949-34.516 30.949l.5 3.81" fill="#6e240d"/></g><path d="m385.15 140.83c-1.334 0-2.446.223-3.559.668-1.336.445-2.225 1.113-3.338 2.225-1.779 1.779-2.892 4-2.892 6.673-.223 2.669.667 4.894 2.67 6.896 1.779 1.78 4 2.893 6.896 2.893 2.669.222 4.895-.89 6.896-2.67 1.78-2 2.892-4.227 2.892-6.896.223-2.446-.89-4.894-2.669-6.896-2-1.78-4.226-2.893-6.896-2.893"/><path d="m313.29 159.84c2.67-.445 4.672-2 6.01-4.449 1.335-2.225 1.779-4.672 1.112-7.341-.667-2.447-2-4.449-4.449-6.01-2.225-1.335-4.895-1.557-7.342-.89-2.669.445-4.672 2-6.01 4.227-1.334 2.447-1.779 4.894-1.112 7.564.668 2.447 2.226 4.45 4.45 6.01 2.447 1.334 4.895 1.557 7.341.889"/><g fill="none" stroke="#000" stroke-miterlimit="3.864"><path d="m385.82 190.41c-23.14 19.799-46.27 20.911-69.41 3.56" stroke-width="3.628"/><g fill-rule="evenodd"><g stroke-width="6.35"><path d="m405.21 213.73c-15.605 16.503-36.03 26.502-58.39 26.502-49.01 0-88.74-48.05-88.74-107.33"/><path d="m383.33 230.77c0 0-5.069 22.734 2.405 24.87 7.476 2.136 37.647 17.316 58.21 35.47 7.424 6.556 21.631 45.766 26.441 74.49.234 1.404-7.603 1.254-7.375 2.678 1.786 49.646 7.375 99.11 7.375 99.11v10.679"/><path d="m420.14 338.63l10.678 137.63"/><path d="m314.51 231.84c-2.136 26.966-23.753 25.19-23.753 25.19s-30.649 8.441-63.69 33.54c-6.815 5.179-15.313 16.08-22.361 24.09-1.77 2.01 3.188 5.146 1.4 7.136-16.678 18.571-38.936 39.979-38.936 39.979l-42.619-46.842c0 0 10.9-41.621 10.04-59.3-9.646-15.555-21.2 23.14-21.2 23.14s-3.441-31.685-8.125-44.19c-2.01-5.378-4.208-9.715-6.364-11.12-7.17-4.672-1.363 44.503-1.363 44.503s-15.338-26.836-23.726-36.36c0 0-7.666-6.852-8.546-1.318-1.351 8.483 20.02 49.11 20.02 49.11s-24.11-30.753-31.33-33.954c-7.221-3.2-8.866 4.294-4.692 10.336 4.173 6.04 21.22 33.64 21.22 33.64s-20.461-14.67-26.557-8.986c-6.094 5.684 45.09 45.586 52.45 45.844 18.844 33.3 54 95.76 73.906 92.96 31.32-16.566 71.31-57.36 71.31-57.36l25.289-22.17-14.15 138.69"/></g><g stroke-width="3.628"><path d="m27.646 251.93c0 0 13.849-46.824 67.05-50.01"/><path d="m31.896 210.42c0 0 17.04-21.252 43.638-20.19"/></g><path d="m340.23 176.38c0 0 9.08 6.314 16.301 0" stroke-width="2.721"/><g stroke-width="6.35"><path d="m293.88 257.29c0 0 22.421 52.29 46.704 53.22 24.283.932 46.703-28.01 55.09-48.565"/><path d="m207.05 320.85c0 0 24.292 32.574 29.881 44.749"/><path d="m461.07 369.36l-39.25 5.589"/><path d="m261.26 133.24c26.54-.941 41.736-28.819 61.55-43.676 0 0 44.801 37.82 72.71 29.01-16.03-11.751-17.794-28.381-17.794-28.381s39.858 26.969 54.42 21.09"/><path d="m382.72 234.99l11.303 16.69c4.125-10.616 5.901-24.49 5.901-24.49 9.07 20.224 2.454 22.797 2.454 22.797s21.04-20.795 22.267-38.28c3.611 11.386 5.712 19.63 5.712 19.63s9.216-63.734 7.113-91.57c10.352 1.537 5.03-12.192 5.03-12.192s-1.544-15.235-7.309-34.17c0 0-19.866-62.33-78.04-70.812l-3.8.142c0 0-31.14-5.823-58.814 12.728-24.673 15.943-48.951 63.11-51.827 116.89 3.896-5.04 15.72-15.365 15.72-15.365s-6.444 71.37-3.02 85.78c10.906-16.929 12.785-18.19 12.785-18.19s9.667 35.448 3.412 38.05c8.783 4.663 15.934-5.611 22.565-13.604 2.804 2.658 7.147 21.253 9.159 23.15 0 0 11-6.986 11-20.1-22.03-14.01-52.982-30.06-53.874-98.83 18.467 1.783 32.1-16.684 38.974-22.03 6.877-5.35 22.03-20.25 22.03-20.25s37.509 33.539 74.04 27.615c-17.832-8.916-16.854-26.724-16.854-26.724s31.67 21.22 46.827 19.436c5.35 25.601 8.387 61.3-8.745 88.95-15.438 20.816-34.516 30.949-34.516 30.949l.5 3.811z"/></g></g></g><text transform="translate(288 457)" fill="#54541e" font-family="&apos;Arial-BoldMT&apos;" stroke="#54541e" stroke-width="3" font-size="162">A</text></svg>